<?xml version="1.0" encoding="UTF-8" standalone="no"?>
<!-- Created with Inkscape (http://www.inkscape.org/) -->

<svg
   xmlns:dc="http://purl.org/dc/elements/1.1/"
   xmlns:cc="http://creativecommons.org/ns#"
   xmlns:rdf="http://www.w3.org/1999/02/22-rdf-syntax-ns#"
   xmlns:svg="http://www.w3.org/2000/svg"
   xmlns="http://www.w3.org/2000/svg"
   xmlns:xlink="http://www.w3.org/1999/xlink"
   xmlns:sodipodi="http://sodipodi.sourceforge.net/DTD/sodipodi-0.dtd"
   xmlns:inkscape="http://www.inkscape.org/namespaces/inkscape"
   width="2400"
   height="2400"
   id="svg2"
   sodipodi:version="0.32"
   inkscape:version="0.48.2 r9819"
   version="1.0"
   sodipodi:docname="Icon2.svg"
   inkscape:output_extension="org.inkscape.output.svg.inkscape"
   inkscape:export-filename="C:\androidworkspace\twitter\Icon.png"
   inkscape:export-xdpi="1.8"
   inkscape:export-ydpi="1.8">
  <defs
     id="defs4">
    <linearGradient
       id="linearGradient6187">
      <stop
         style="stop-color:#ffffff;stop-opacity:1;"
         offset="0"
         id="stop6189" />
      <stop
         style="stop-color:#1f1f1f;stop-opacity:1;"
         offset="1"
         id="stop6191" />
    </linearGradient>
    <linearGradient
       id="linearGradient4984">
      <stop
         id="stop4986"
         offset="0"
         style="stop-color:#000000;stop-opacity:1;" />
      <stop
         id="stop4988"
         offset="1"
         style="stop-color:#000000;stop-opacity:1;" />
    </linearGradient>
    <linearGradient
       id="linearGradient4666">
      <stop
         style="stop-color:#ff0000;stop-opacity:1;"
         offset="0"
         id="stop4668" />
      <stop
         id="stop4674"
         offset="0.33000001"
         style="stop-color:#ffff00;stop-opacity:1;" />
      <stop
         style="stop-color:#7fff00;stop-opacity:1;"
         offset="0.66000003"
         id="stop4702" />
      <stop
         style="stop-color:#00ffff;stop-opacity:1;"
         offset="1"
         id="stop4676" />
    </linearGradient>
    <linearGradient
       inkscape:collect="always"
       xlink:href="#linearGradient4984"
       id="linearGradient5047"
       gradientUnits="userSpaceOnUse"
       x1="647.57812"
       y1="695.20734"
       x2="1157.7344"
       y2="695.20734" />
    <linearGradient
       inkscape:collect="always"
       xlink:href="#linearGradient4984"
       id="linearGradient5931"
       gradientUnits="userSpaceOnUse"
       x1="647.57812"
       y1="695.20734"
       x2="1157.7344"
       y2="695.20734" />
    <linearGradient
       inkscape:collect="always"
       xlink:href="#linearGradient4984"
       id="linearGradient6557"
       gradientUnits="userSpaceOnUse"
       x1="647.57812"
       y1="695.20734"
       x2="1157.7344"
       y2="695.20734" />
    <linearGradient
       inkscape:collect="always"
       xlink:href="#linearGradient6187"
       id="linearGradient6559"
       gradientUnits="userSpaceOnUse"
       x1="258.91125"
       y1="1081.4126"
       x2="2017.3344"
       y2="1081.4126" />
    <linearGradient
       inkscape:collect="always"
       xlink:href="#linearGradient4984"
       id="linearGradient6567"
       gradientUnits="userSpaceOnUse"
       x1="647.57812"
       y1="695.20734"
       x2="1157.7344"
       y2="695.20734" />
    <linearGradient
       inkscape:collect="always"
       xlink:href="#linearGradient6187"
       id="linearGradient6569"
       gradientUnits="userSpaceOnUse"
       x1="258.91125"
       y1="1081.4126"
       x2="2017.3344"
       y2="1081.4126" />
    <filter
       inkscape:collect="always"
       id="filter6577">
      <feGaussianBlur
         inkscape:collect="always"
         stdDeviation="49.305995"
         id="feGaussianBlur6579" />
    </filter>
    <linearGradient
       inkscape:collect="always"
       xlink:href="#linearGradient6187"
       id="linearGradient6587"
       x1="493.91125"
       y1="1081.4126"
       x2="1452.3344"
       y2="1081.4126"
       gradientUnits="userSpaceOnUse" />
    <linearGradient
       inkscape:collect="always"
       xlink:href="#linearGradient6187"
       id="linearGradient8315"
       gradientUnits="userSpaceOnUse"
       x1="493.91125"
       y1="1081.4126"
       x2="1452.3344"
       y2="1081.4126" />
    <linearGradient
       inkscape:collect="always"
       xlink:href="#linearGradient6187"
       id="linearGradient8317"
       gradientUnits="userSpaceOnUse"
       x1="493.91125"
       y1="1081.4126"
       x2="1452.3344"
       y2="1081.4126" />
    <linearGradient
       inkscape:collect="always"
       xlink:href="#linearGradient6187"
       id="linearGradient8319"
       gradientUnits="userSpaceOnUse"
       x1="493.91125"
       y1="1081.4126"
       x2="1452.3344"
       y2="1081.4126" />
    <linearGradient
       inkscape:collect="always"
       xlink:href="#linearGradient6187"
       id="linearGradient8321"
       gradientUnits="userSpaceOnUse"
       x1="493.91125"
       y1="1081.4126"
       x2="1452.3344"
       y2="1081.4126" />
    <linearGradient
       inkscape:collect="always"
       xlink:href="#linearGradient6187"
       id="linearGradient8323"
       gradientUnits="userSpaceOnUse"
       x1="493.91125"
       y1="1081.4126"
       x2="1452.3344"
       y2="1081.4126" />
    <linearGradient
       inkscape:collect="always"
       xlink:href="#linearGradient6187"
       id="linearGradient8325"
       gradientUnits="userSpaceOnUse"
       x1="493.91125"
       y1="1081.4126"
       x2="1452.3344"
       y2="1081.4126" />
    <linearGradient
       inkscape:collect="always"
       xlink:href="#linearGradient6187"
       id="linearGradient8327"
       gradientUnits="userSpaceOnUse"
       x1="493.91125"
       y1="1081.4126"
       x2="1452.3344"
       y2="1081.4126" />
    <linearGradient
       inkscape:collect="always"
       xlink:href="#linearGradient6187"
       id="linearGradient8329"
       gradientUnits="userSpaceOnUse"
       x1="493.91125"
       y1="1081.4126"
       x2="1452.3344"
       y2="1081.4126" />
    <filter
       id="filter5092"
       inkscape:label="Drop shadow"
       width="1.5"
       height="1.5"
       x="-.25"
       y="-.25">
      <feGaussianBlur
         id="feGaussianBlur5094"
         in="SourceAlpha"
         stdDeviation="50"
         result="blur" />
      <feColorMatrix
         id="feColorMatrix5096"
         result="bluralpha"
         type="matrix"
         values="-1 0 0 0 1 0 -1 0 0 1 0 0 -1 0 1 0 0 0 0.5 0 " />
      <feOffset
         id="feOffset5098"
         in="bluralpha"
         dx="10"
         dy="4"
         result="offsetBlur" />
      <feMerge
         id="feMerge5100">
        <feMergeNode
           id="feMergeNode5102"
           in="offsetBlur" />
        <feMergeNode
           id="feMergeNode5104"
           in="SourceGraphic" />
      </feMerge>
    </filter>
    <filter
       id="filter5106"
       inkscape:label="Drop shadow"
       width="1.5"
       height="1.5"
       x="-.25"
       y="-.25">
      <feGaussianBlur
         id="feGaussianBlur5108"
         in="SourceAlpha"
         stdDeviation="50"
         result="blur" />
      <feColorMatrix
         id="feColorMatrix5110"
         result="bluralpha"
         type="matrix"
         values="-1 0 0 0 1 0 -1 0 0 1 0 0 -1 0 1 0 0 0 0.5 0 " />
      <feOffset
         id="feOffset5112"
         in="bluralpha"
         dx="10"
         dy="4"
         result="offsetBlur" />
      <feMerge
         id="feMerge5114">
        <feMergeNode
           id="feMergeNode5116"
           in="offsetBlur" />
        <feMergeNode
           id="feMergeNode5118"
           in="SourceGraphic" />
      </feMerge>
    </filter>
    <filter
       id="filter5120"
       inkscape:label="Drop shadow"
       width="1.5"
       height="1.5"
       x="-.25"
       y="-.25">
      <feGaussianBlur
         id="feGaussianBlur5122"
         in="SourceAlpha"
         stdDeviation="50"
         result="blur" />
      <feColorMatrix
         id="feColorMatrix5124"
         result="bluralpha"
         type="matrix"
         values="-1 0 0 0 1 0 -1 0 0 1 0 0 -1 0 1 0 0 0 0.5 0 " />
      <feOffset
         id="feOffset5126"
         in="bluralpha"
         dx="10"
         dy="4"
         result="offsetBlur" />
      <feMerge
         id="feMerge5128">
        <feMergeNode
           id="feMergeNode5130"
           in="offsetBlur" />
        <feMergeNode
           id="feMergeNode5132"
           in="SourceGraphic" />
      </feMerge>
    </filter>
  </defs>
  <sodipodi:namedview
     id="base"
     pagecolor="#212421"
     bordercolor="#666666"
     borderopacity="1.0"
     gridtolerance="10000"
     guidetolerance="10"
     objecttolerance="10"
     inkscape:pageopacity="1"
     inkscape:pageshadow="2"
     inkscape:zoom="0.2"
     inkscape:cx="1466.5334"
     inkscape:cy="1082.2856"
     inkscape:document-units="px"
     inkscape:current-layer="layer1"
     showgrid="false"
     showborder="true"
     inkscape:window-width="1280"
     inkscape:window-height="756"
     inkscape:window-x="18"
     inkscape:window-y="0"
     inkscape:window-maximized="0" />
  <metadata
     id="metadata7">
    <rdf:RDF>
      <cc:Work
         rdf:about="">
        <dc:format>image/svg+xml</dc:format>
        <dc:type
           rdf:resource="http://purl.org/dc/dcmitype/StillImage" />
        <dc:title></dc:title>
      </cc:Work>
    </rdf:RDF>
  </metadata>
  <g
     inkscape:label="Layer 1"
     inkscape:groupmode="layer"
     id="layer1">
    <g
       id="g6537"
       transform="matrix(0.9895691,0,0,0.9895691,91.076028,84.651183)"
       style="opacity:0.54100001;fill:#000000;fill-opacity:1;stroke:#000000;stroke-opacity:1;filter:url(#filter6577)">
      <flowRoot
         transform="matrix(4.2722405,0,0,4.2722405,-2295.4395,-1888.6804)"
         style="font-size:400px;font-style:normal;font-variant:normal;font-weight:normal;font-stretch:normal;text-align:center;line-height:100%;writing-mode:lr-tb;text-anchor:middle;fill:#000000;fill-opacity:1;stroke:#000000;stroke-width:7.02207661;stroke-linecap:butt;stroke-linejoin:miter;stroke-miterlimit:4;stroke-dasharray:none;stroke-opacity:1;font-family:Bitstream Vera Sans;-inkscape-font-specification:Bitstream Vera Sans"
         id="flowRoot6539"
         xml:space="preserve"><flowRegion
           style="fill:url(#linearGradient6557);fill-opacity:1;stroke:url(#linearGradient6559)"
           id="flowRegion6541"><rect
             style="font-size:400px;font-style:normal;font-variant:normal;font-weight:normal;font-stretch:normal;text-align:center;line-height:100%;writing-mode:lr-tb;text-anchor:middle;fill:#000000;fill-opacity:1;stroke:#000000;stroke-width:7.02207661;stroke-linecap:butt;stroke-linejoin:miter;stroke-miterlimit:4;stroke-dasharray:none;stroke-opacity:1;font-family:Bitstream Vera Sans;-inkscape-font-specification:Bitstream Vera Sans"
             y="588"
             x="576"
             height="303.31171"
             width="613.47406"
             id="rect6543" /></flowRegion><flowPara
           style="font-size:400px;font-style:normal;font-variant:normal;font-weight:normal;font-stretch:normal;text-align:center;line-height:100%;writing-mode:lr-tb;text-anchor:middle;fill:#000000;fill-opacity:1;stroke:#000000;stroke-width:7.02207661;stroke-linecap:butt;stroke-linejoin:miter;stroke-miterlimit:4;stroke-dasharray:none;stroke-opacity:1;font-family:Bitstream Vera Sans;-inkscape-font-specification:Bitstream Vera Sans"
           id="flowPara6545">T</flowPara></flowRoot>      <flowRoot
         transform="matrix(4.2722405,0,0,4.2722405,-3015.0464,-1888.6804)"
         style="font-size:400px;font-style:italic;font-variant:normal;font-weight:normal;font-stretch:normal;text-align:center;line-height:100%;writing-mode:lr-tb;text-anchor:middle;fill:#000000;fill-opacity:1;stroke:#000000;stroke-width:7.02207661;stroke-linecap:butt;stroke-linejoin:miter;stroke-miterlimit:4;stroke-dasharray:none;stroke-opacity:1;font-family:Bitstream Vera Sans;-inkscape-font-specification:Bitstream Vera Sans Italic"
         id="flowRoot6547"
         xml:space="preserve"><flowRegion
           style="fill:url(#linearGradient6567);fill-opacity:1;stroke:url(#linearGradient6569)"
           id="flowRegion6549"><rect
             style="font-size:400px;font-style:italic;font-variant:normal;font-weight:normal;font-stretch:normal;text-align:center;line-height:100%;writing-mode:lr-tb;text-anchor:middle;fill:#000000;fill-opacity:1;stroke:#000000;stroke-width:7.02207661;stroke-linecap:butt;stroke-linejoin:miter;stroke-miterlimit:4;stroke-dasharray:none;stroke-opacity:1;font-family:Bitstream Vera Sans;-inkscape-font-specification:Bitstream Vera Sans Italic"
             y="588"
             x="576"
             height="303.31171"
             width="613.47406"
             id="rect6551" /></flowRegion><flowPara
           style="font-size:400px;font-style:italic;font-variant:normal;font-weight:normal;font-stretch:normal;text-align:center;line-height:100%;writing-mode:lr-tb;text-anchor:middle;fill:#000000;fill-opacity:1;stroke:#000000;stroke-width:7.02207661;stroke-linecap:butt;stroke-linejoin:miter;stroke-miterlimit:4;stroke-dasharray:none;stroke-opacity:1;font-family:Bitstream Vera Sans;-inkscape-font-specification:Bitstream Vera Sans Italic"
           id="flowPara6553">n</flowPara></flowRoot>    </g>
    <g
       id="g6511"
       transform="matrix(0.9895691,0,0,0.9895691,39.739934,1.9356647)"
       style="stroke:url(#linearGradient6587);stroke-opacity:1">
      <flowRoot
         transform="matrix(4.2722405,0,0,4.2722405,-2295.4395,-1888.6804)"
         style="font-size:400px;font-style:normal;font-variant:normal;font-weight:normal;font-stretch:normal;text-align:center;line-height:100%;writing-mode:lr-tb;text-anchor:middle;fill:#ffffff;fill-opacity:1;stroke:url(#linearGradient8321);stroke-width:7.02207661;stroke-linecap:butt;stroke-linejoin:miter;stroke-miterlimit:4;stroke-dasharray:none;stroke-opacity:1;font-family:Bitstream Vera Sans;-inkscape-font-specification:Bitstream Vera Sans"
         id="flowRoot4704"
         xml:space="preserve"><flowRegion
           style="fill:url(#linearGradient5047);fill-opacity:1;stroke:url(#linearGradient8317)"
           id="flowRegion4706"><rect
             style="font-size:400px;font-style:normal;font-variant:normal;font-weight:normal;font-stretch:normal;text-align:center;line-height:100%;writing-mode:lr-tb;text-anchor:middle;fill:#ffffff;fill-opacity:1;stroke:url(#linearGradient8315);stroke-width:7.02207661;stroke-linecap:butt;stroke-linejoin:miter;stroke-miterlimit:4;stroke-dasharray:none;stroke-opacity:1;font-family:Bitstream Vera Sans;-inkscape-font-specification:Bitstream Vera Sans"
             y="588"
             x="576"
             height="303.31171"
             width="613.47406"
             id="rect4708" /></flowRegion><flowPara
           style="font-size:400px;font-style:normal;font-variant:normal;font-weight:normal;font-stretch:normal;text-align:center;line-height:100%;writing-mode:lr-tb;text-anchor:middle;fill:#ffffff;fill-opacity:1;stroke:url(#linearGradient8319);stroke-width:7.02207661;stroke-linecap:butt;stroke-linejoin:miter;stroke-miterlimit:4;stroke-dasharray:none;stroke-opacity:1;font-family:Bitstream Vera Sans;-inkscape-font-specification:Bitstream Vera Sans"
           id="flowPara4712">T</flowPara></flowRoot>      <flowRoot
         transform="matrix(4.2722405,0,0,4.2722405,-3015.0464,-1888.6804)"
         style="font-size:400px;font-style:italic;font-variant:normal;font-weight:normal;font-stretch:normal;text-align:center;line-height:100%;writing-mode:lr-tb;text-anchor:middle;fill:#ffffff;fill-opacity:1;stroke:url(#linearGradient8329);stroke-width:7.02207661;stroke-linecap:butt;stroke-linejoin:miter;stroke-miterlimit:4;stroke-dasharray:none;stroke-opacity:1;font-family:Bitstream Vera Sans;-inkscape-font-specification:Bitstream Vera Sans Italic"
         id="flowRoot5923"
         xml:space="preserve"><flowRegion
           style="fill:url(#linearGradient5931);fill-opacity:1;stroke:url(#linearGradient8325)"
           id="flowRegion5925"><rect
             style="font-size:400px;font-style:italic;font-variant:normal;font-weight:normal;font-stretch:normal;text-align:center;line-height:100%;writing-mode:lr-tb;text-anchor:middle;fill:#ffffff;fill-opacity:1;stroke:url(#linearGradient8323);stroke-width:7.02207661;stroke-linecap:butt;stroke-linejoin:miter;stroke-miterlimit:4;stroke-dasharray:none;stroke-opacity:1;font-family:Bitstream Vera Sans;-inkscape-font-specification:Bitstream Vera Sans Italic"
             y="588"
             x="576"
             height="303.31171"
             width="613.47406"
             id="rect5927" /></flowRegion><flowPara
           style="font-size:400px;font-style:italic;font-variant:normal;font-weight:normal;font-stretch:normal;text-align:center;line-height:100%;writing-mode:lr-tb;text-anchor:middle;fill:#ffffff;fill-opacity:1;stroke:url(#linearGradient8327);stroke-width:7.02207661;stroke-linecap:butt;stroke-linejoin:miter;stroke-miterlimit:4;stroke-dasharray:none;stroke-opacity:1;font-family:Bitstream Vera Sans;-inkscape-font-specification:Bitstream Vera Sans Italic"
           id="flowPara5929">n</flowPara></flowRoot>    </g>
    <path
       style="fill:none;stroke:#6cb2ff;stroke-width:100;stroke-linecap:round;stroke-linejoin:round;stroke-miterlimit:4;stroke-opacity:1;stroke-dasharray:none;filter:url(#filter5120)"
       d="M -1.1128297e-6,1654.0024 C 2.3570189,1649.2883 3.6969989,1643.9091 7.0710689,1639.8602 c 2.72026,-3.2643 7.2885501,-4.4166 10.6066001,-7.071 2.6029,-2.0823 4.71405,-4.7141 7.07107,-7.0711 8.24958,-8.2496 16.49916,-16.4992 24.74874,-24.7487 10.6066,-10.6066 21.2132,-21.2132 31.8198,-31.8198 5.89256,-5.8926 11.22803,-12.4007 17.67767,-17.6777 6.577371,-5.3815 14.340271,-9.1436 21.213201,-14.1421 40.06412,-29.1376 -6.05743,-0.2315 38.89088,-24.7488 6.03276,-3.2906 11.64491,-7.316 17.67767,-10.6066 6.94037,-3.7856 14.14213,-7.071 21.2132,-10.6066 15.14095,-7.5705 29.95433,-15.4962 45.96194,-21.2132 8.07986,-2.8856 16.66888,-4.1854 24.74874,-7.0711 8.45239,-3.0187 16.17036,-7.9671 24.74874,-10.6066 13.7032,-4.2163 28.51727,-3.5937 42.4264,-7.071 7.23102,-1.8078 14.14214,-4.7141 21.21321,-7.0711 8.24957,-1.1785 16.57723,-1.9012 24.74873,-3.5355 39.45565,-7.8912 18.691,-6.1741 60.10408,-17.6777 33.07121,-9.1864 28.05498,-5.676 60.10408,-10.6066 5.93937,-0.9137 11.68917,-3.0365 17.67767,-3.5355 8.22108,-0.6851 16.49915,0 24.74873,0 14.14214,0 28.28427,0 42.42641,0 12.96362,0 25.92725,0 38.89087,0 7.07107,0 14.23835,-1.1625 21.21321,0 7.35214,1.2253 14.08924,4.8791 21.2132,7.071 8.20029,2.5232 16.60933,4.358 24.74874,7.0711 9.55248,3.1842 18.66033,7.6454 28.28427,10.6066 5.74352,1.7672 11.92185,1.8088 17.67767,3.5355 12.15764,3.6473 23.31374,10.1283 35.35534,14.1422 4.60977,1.5366 9.796,1.3624 14.14213,3.5355 7.60117,3.8006 13.7843,10.015 21.21321,14.1421 3.25779,1.8099 7.37085,1.6866 10.6066,3.5356 35.52919,20.3024 -0.61438,2.0865 21.2132,17.6776 5.59185,3.9942 12.1802,6.4835 17.67767,10.6067 4,3 7.07107,7.071 10.6066,10.6066 5.89256,3.5355 11.88016,6.9172 17.67767,10.6066 7.16974,4.5625 14.25104,9.2686 21.21324,14.1421 4.8273,3.3791 8.8716,7.9714 14.1421,10.6066 6.6667,3.3333 14.2927,4.3029 21.2132,7.0711 4.8935,1.9574 9.4281,4.714 14.1421,7.071 11.7852,5.8926 23.1928,12.6099 35.3554,17.6777 6.88015,2.8668 14.20835,4.5239 21.21315,7.0711 15.4112,5.6041 30.1555,13.1615 45.9619,17.6776 4.6722,1.3349 9.47,2.2007 14.1422,3.5356 24.7487,7.071 -7.0711,0 31.8198,10.6066 5.7975,1.5811 11.9768,1.6352 17.6776,3.5355 12.3744,4.1248 22.981,13.5529 35.3554,17.6777 6.8007,2.2669 14.1602,2.2531 21.2132,3.5355 20.9294,3.8054 21.3047,5.3098 45.9619,7.0711 7.0531,0.5038 14.1422,0 21.2132,0 9.4281,0 18.8562,0 28.2843,0 21.2132,0 42.4264,0 63.6396,0 8.2496,0 16.6114,1.3562 24.7487,0 6.2602,-1.0434 11.5207,-5.5318 17.6777,-7.0711 3.43,-0.8575 7.1397,0.6934 10.6066,0 3.3013,-0.6603 12.4218,-7.1658 14.1421,-10.6066 0.5271,-1.0541 -0.527,-2.4814 0,-3.5355 0.7454,-1.4907 2.7902,-2.0449 3.5356,-3.5356 0.527,-1.0541 -0.5271,-2.4814 0,-3.5355 0.7453,-1.4907 2.7902,-2.0448 3.5355,-3.5355 1.0541,-2.1082 -2.357,-7.0711 0,-7.0711 1.1785,0 -1.1785,3.5355 0,3.5355 1.6667,0 2.0448,-2.7901 3.5355,-3.5355 1.0541,-0.527 2.3571,0 3.5356,0 2.357,0 4.835,0.7454 7.071,0 3.1623,-1.0541 4.2976,-5.2221 7.0711,-7.0711 2.1927,-1.4617 5.2077,-1.6721 7.0711,-3.5355 1.8634,-1.8634 2.0738,-4.8784 3.5355,-7.0711 3.4683,-5.2024 10.6739,-8.9397 14.1422,-14.1421 0.6537,-0.9806 -0.5271,-2.4814 0,-3.5355 0.9441,-1.8883 8.7452,-8.7453 10.6066,-10.6066 3.5355,-3.5356 7.071,-7.0711 10.6066,-10.6066 2.357,-2.3571 4.4044,-5.0711 7.071,-7.0711 2.1082,-1.5811 4.9629,-1.9544 7.0711,-3.5355 2.6667,-2 4.714,-4.7141 7.0711,-7.0711 3.5355,-3.5355 7.071,-7.0711 10.6066,-10.6066 2.357,-2.357 4.714,-4.7141 7.071,-7.0711 2.3571,-2.357 5.0711,-4.4044 7.0711,-7.071 1.5811,-2.1082 1.6721,-5.2077 3.5355,-7.0711 13.2636,-13.2636 6.5181,-2.2369 17.6777,-10.6066 2.6667,-2 4.2976,-5.2221 7.0711,-7.0711 4.3853,-2.9235 9.4281,-4.714 14.1421,-7.0711 4.7141,-2.357 9.2978,-4.9949 14.1421,-7.071 3.4255,-1.4681 7.2011,-2.022 10.6066,-3.5356 7.2244,-3.2108 14.2729,-6.8209 21.2132,-10.6066 12.0656,-6.5811 23.2899,-14.632 35.3554,-21.2132 13.8807,-7.5713 28.2843,-14.1421 42.4264,-21.2132 7.0711,-3.5355 13.9156,-7.5659 21.2132,-10.6066 6.8802,-2.8667 14.2565,-4.3954 21.2132,-7.071 19.7578,-7.5992 26.0682,-12.7043 45.9619,-17.6777 6.9546,-1.7386 14.1422,-2.357 21.2132,-3.5355 14.1422,-2.3571 28.2843,-4.7141 42.4265,-7.0711 7.071,-1.1785 14.2281,-1.9236 21.2132,-3.5355 8.3599,-1.9293 16.2443,-5.9372 24.7487,-7.0711 9.3454,-1.2461 18.8562,0 28.2843,0 20.0347,0 40.0693,0 60.104,0 8.2496,0 16.4992,0 24.7488,0 8.2496,0 16.8165,-2.2663 24.7487,0 9.1359,2.6102 16.2504,9.8929 24.7488,14.1421 12.7366,6.3684 26.1542,11.3094 38.8908,17.6777 10.8526,5.4263 20.8543,12.4835 31.8198,17.6777 11.4711,5.4336 23.8843,8.7084 35.3554,14.1421 10.9655,5.1942 20.8543,12.4835 31.8198,17.6777 41.1321,19.4836 26.3043,8.4145 63.6396,24.7487 9.6571,4.225 18.5373,10.1287 28.2843,14.1421 10.3382,4.257 21.6883,5.8786 31.8198,10.6066 7.701,3.5939 13.9259,9.7698 21.2132,14.1422 19.5739,11.7443 8.4417,1.9119 24.7487,14.1421 1.3333,1 2.7902,2.0448 3.5355,3.5356 0.5271,1.054 -1.0541,3.0084 0,3.5355 2.1082,1.0541 4.9629,-1.0541 7.0711,0 2.9814,1.4907 4.4044,5.0711 7.0711,7.0711 2.1082,1.5811 4.6243,2.5568 7.071,3.5355 3.4603,1.3841 7.6965,1.2074 10.6066,3.5355 3.3181,2.6545 4.0665,7.602 7.0711,10.6066 1.8634,1.8634 4.8784,2.0738 7.0711,3.5356 5.4626,3.6417 3.5355,8.1998 3.5355,14.1421"
       id="path3162"
       inkscape:connector-curvature="0"
       transform="matrix(0.91931551,0,0,0.98576385,72.002645,15.326244)" />
    <path
       inkscape:connector-curvature="0"
       id="path3976"
       d="M -1.1128297e-6,1919.1674 C 2.3570189,1914.4533 3.6969989,1909.0741 7.0710689,1905.0252 c 2.72026,-3.2643 7.2885501,-4.4166 10.6066001,-7.071 2.6029,-2.0823 4.71405,-4.7141 7.07107,-7.0711 8.24958,-8.2496 16.49916,-16.4992 24.74874,-24.7487 10.6066,-10.6066 21.2132,-21.2132 31.8198,-31.8198 5.89256,-5.8926 11.22803,-12.4007 17.67767,-17.6777 6.577371,-5.3815 14.340271,-9.1436 21.213201,-14.1421 40.06412,-29.1376 -6.05743,-0.2315 38.89088,-24.7488 6.03276,-3.2906 11.64491,-7.316 17.67767,-10.6066 6.94037,-3.7856 14.14213,-7.071 21.2132,-10.6066 15.14095,-7.5705 29.95433,-15.4962 45.96194,-21.2132 8.07986,-2.8856 16.66888,-4.1854 24.74874,-7.0711 8.45239,-3.0187 16.17036,-7.9671 24.74874,-10.6066 13.7032,-4.2163 28.51727,-3.5937 42.4264,-7.071 7.23102,-1.8078 14.14214,-4.7141 21.21321,-7.0711 8.24957,-1.1785 16.57723,-1.9012 24.74873,-3.5355 39.45565,-7.8912 18.691,-6.1741 60.10408,-17.6777 33.07121,-9.1864 28.05498,-5.676 60.10408,-10.6066 5.93937,-0.9137 11.68917,-3.0365 17.67767,-3.5355 8.22108,-0.6851 16.49915,0 24.74873,0 14.14214,0 28.28427,0 42.42641,0 12.96362,0 25.92725,0 38.89087,0 7.07107,0 14.23835,-1.1625 21.21321,0 7.35214,1.2253 14.08924,4.8791 21.2132,7.071 8.20029,2.5232 16.60933,4.358 24.74874,7.0711 9.55248,3.1842 18.66033,7.6454 28.28427,10.6066 5.74352,1.7672 11.92185,1.8088 17.67767,3.5355 12.15764,3.6473 23.31374,10.1283 35.35534,14.1422 4.60977,1.5366 9.796,1.3624 14.14213,3.5355 7.60117,3.8006 13.7843,10.015 21.21321,14.1421 3.25779,1.8099 7.37085,1.6866 10.6066,3.5356 35.52919,20.3024 -0.61438,2.0865 21.2132,17.6776 5.59185,3.9942 12.1802,6.4835 17.67767,10.6067 4,3 7.07107,7.071 10.6066,10.6066 5.89256,3.5355 11.88016,6.9172 17.67767,10.6066 7.16974,4.5625 14.25104,9.2686 21.21324,14.1421 4.8273,3.3791 8.8716,7.9714 14.1421,10.6066 6.6667,3.3333 14.2927,4.3029 21.2132,7.0711 4.8935,1.9574 9.4281,4.714 14.1421,7.071 11.7852,5.8926 23.1928,12.6099 35.3554,17.6777 6.88015,2.8668 14.20835,4.5239 21.21315,7.0711 15.4112,5.6041 30.1555,13.1615 45.9619,17.6776 4.6722,1.3349 9.47,2.2007 14.1422,3.5356 24.7487,7.071 -7.0711,0 31.8198,10.6066 5.7975,1.5811 11.9768,1.6352 17.6776,3.5355 12.3744,4.1248 22.981,13.5529 35.3554,17.6777 6.8007,2.2669 14.1602,2.2531 21.2132,3.5355 20.9294,3.8054 21.3047,5.3098 45.9619,7.0711 7.0531,0.5038 14.1422,0 21.2132,0 9.4281,0 18.8562,0 28.2843,0 21.2132,0 42.4264,0 63.6396,0 8.2496,0 16.6114,1.3562 24.7487,0 6.2602,-1.0434 11.5207,-5.5318 17.6777,-7.0711 3.43,-0.8575 7.1397,0.6934 10.6066,0 3.3013,-0.6603 12.4218,-7.1658 14.1421,-10.6066 0.5271,-1.0541 -0.527,-2.4814 0,-3.5355 0.7454,-1.4907 2.7902,-2.0449 3.5356,-3.5356 0.527,-1.0541 -0.5271,-2.4814 0,-3.5355 0.7453,-1.4907 2.7902,-2.0448 3.5355,-3.5355 1.0541,-2.1082 -2.357,-7.0711 0,-7.0711 1.1785,0 -1.1785,3.5355 0,3.5355 1.6667,0 2.0448,-2.7901 3.5355,-3.5355 1.0541,-0.527 2.3571,0 3.5356,0 2.357,0 4.835,0.7454 7.071,0 3.1623,-1.0541 4.2976,-5.2221 7.0711,-7.0711 2.1927,-1.4617 5.2077,-1.6721 7.0711,-3.5355 1.8634,-1.8634 2.0738,-4.8784 3.5355,-7.0711 3.4683,-5.2024 10.6739,-8.9397 14.1422,-14.1421 0.6537,-0.9806 -0.5271,-2.4814 0,-3.5355 0.9441,-1.8883 8.7452,-8.7453 10.6066,-10.6066 3.5355,-3.5356 7.071,-7.0711 10.6066,-10.6066 2.357,-2.3571 4.4044,-5.0711 7.071,-7.0711 2.1082,-1.5811 4.9629,-1.9544 7.0711,-3.5355 2.6667,-2 4.714,-4.7141 7.0711,-7.0711 3.5355,-3.5355 7.071,-7.0711 10.6066,-10.6066 2.357,-2.357 4.714,-4.7141 7.071,-7.0711 2.3571,-2.357 5.0711,-4.4044 7.0711,-7.071 1.5811,-2.1082 1.6721,-5.2077 3.5355,-7.0711 13.2636,-13.2636 6.5181,-2.2369 17.6777,-10.6066 2.6667,-2 4.2976,-5.2221 7.0711,-7.0711 4.3853,-2.9235 9.4281,-4.714 14.1421,-7.0711 4.7141,-2.357 9.2978,-4.9949 14.1421,-7.071 3.4255,-1.4681 7.2011,-2.022 10.6066,-3.5356 7.2244,-3.2108 14.2729,-6.8209 21.2132,-10.6066 12.0656,-6.5811 23.2899,-14.632 35.3554,-21.2132 13.8807,-7.5713 28.2843,-14.1421 42.4264,-21.2132 7.0711,-3.5355 13.9156,-7.5659 21.2132,-10.6066 6.8802,-2.8667 14.2565,-4.3954 21.2132,-7.071 19.7578,-7.5992 26.0682,-12.7043 45.9619,-17.6777 6.9546,-1.7386 14.1422,-2.357 21.2132,-3.5355 14.1422,-2.3571 28.2843,-4.7141 42.4265,-7.0711 7.071,-1.1785 14.2281,-1.9236 21.2132,-3.5355 8.3599,-1.9293 16.2443,-5.9372 24.7487,-7.0711 9.3454,-1.2461 18.8562,0 28.2843,0 20.0347,0 40.0693,0 60.104,0 8.2496,0 16.4992,0 24.7488,0 8.2496,0 16.8165,-2.2663 24.7487,0 9.1359,2.6102 16.2504,9.8929 24.7488,14.1421 12.7366,6.3684 26.1542,11.3094 38.8908,17.6777 10.8526,5.4263 20.8543,12.4835 31.8198,17.6777 11.4711,5.4336 23.8843,8.7084 35.3554,14.1421 10.9655,5.1942 20.8543,12.4835 31.8198,17.6777 41.1321,19.4836 26.3043,8.4145 63.6396,24.7487 9.6571,4.225 18.5373,10.1287 28.2843,14.1421 10.3382,4.257 21.6883,5.8786 31.8198,10.6066 7.701,3.5939 13.9259,9.7698 21.2132,14.1422 19.5739,11.7443 8.4417,1.9119 24.7487,14.1421 1.3333,1 2.7902,2.0448 3.5355,3.5356 0.5271,1.054 -1.0541,3.0084 0,3.5355 2.1082,1.0541 4.9629,-1.0541 7.0711,0 2.9814,1.4907 4.4044,5.0711 7.0711,7.0711 2.1082,1.5811 4.6243,2.5568 7.071,3.5355 3.4603,1.3841 7.6965,1.2074 10.6066,3.5355 3.3181,2.6545 4.0665,7.602 7.0711,10.6066 1.8634,1.8634 4.8784,2.0738 7.0711,3.5356 5.4626,3.6417 3.5355,8.1998 3.5355,14.1421"
       style="fill:none;stroke:#0070ee;stroke-width:100;stroke-linecap:round;stroke-linejoin:round;stroke-miterlimit:4;stroke-opacity:1;stroke-dasharray:none;filter:url(#filter5106)"
       transform="matrix(0.91931551,0,0,0.98576385,72.002645,15.326244)" />
    <path
       style="fill:none;stroke:#0057ba;stroke-width:100;stroke-linecap:round;stroke-linejoin:round;stroke-miterlimit:4;stroke-opacity:1;stroke-dasharray:none;filter:url(#filter5092)"
       d="m -10.606603,2205.5456 c 2.3570202,-4.7141 3.6970002,-10.0933 7.0710702,-14.1422 2.72025998,-3.2643 7.2885501,-4.4166 10.6066001,-7.071 2.6029,-2.0823 4.7140497,-4.7141 7.0710697,-7.0711 8.24958,-8.2496 16.49916,-16.4992 24.74874,-24.7487 10.6066,-10.6066 21.2132,-21.2132 31.8198,-31.8198 5.89256,-5.8926 11.22803,-12.4007 17.67767,-17.6777 6.577371,-5.3815 14.340273,-9.1436 21.213203,-14.1421 40.06412,-29.1376 -6.05743,-0.2315 38.89088,-24.7488 6.03276,-3.2906 11.64491,-7.316 17.67767,-10.6066 6.94037,-3.7856 14.14213,-7.071 21.2132,-10.6066 15.14095,-7.5705 29.95433,-15.4962 45.96194,-21.2132 8.07986,-2.8856 16.66888,-4.1854 24.74874,-7.0711 8.45239,-3.0187 16.17036,-7.9671 24.74874,-10.6066 13.7032,-4.2163 28.51727,-3.5937 42.4264,-7.071 7.23102,-1.8078 14.14214,-4.7141 21.21321,-7.0711 8.24957,-1.1785 16.57723,-1.9012 24.74873,-3.5355 39.45565,-7.8912 18.691,-6.1741 60.10408,-17.6777 33.07121,-9.1864 28.05498,-5.676 60.10408,-10.6066 5.93937,-0.9137 11.68917,-3.0365 17.67767,-3.5355 8.22108,-0.6851 16.49915,0 24.74873,0 14.14214,0 28.28427,0 42.42641,0 12.96362,0 25.92725,0 38.89087,0 7.07107,0 14.23835,-1.1625 21.21321,0 7.35214,1.2253 14.08924,4.8791 21.2132,7.071 8.20029,2.5232 16.60933,4.358 24.74874,7.0711 9.55248,3.1842 18.66033,7.6454 28.28427,10.6066 5.74352,1.7672 11.92185,1.8088 17.67767,3.5355 12.15764,3.6473 23.31374,10.1283 35.35534,14.1422 4.60977,1.5366 9.796,1.3624 14.14213,3.5355 7.60117,3.8006 13.7843,10.015 21.21321,14.1421 3.25779,1.8099 7.37085,1.6866 10.6066,3.5356 35.52919,20.3024 -0.61438,2.0865 21.2132,17.6776 5.59185,3.9942 12.1802,6.4835 17.67767,10.6067 4,3 7.07107,7.071 10.6066,10.6066 5.89256,3.5355 11.88016,6.9172 17.67767,10.6066 7.16974,4.5625 14.25104,9.2686 21.21324,14.1421 4.8273,3.3791 8.8716,7.9714 14.1421,10.6066 6.6667,3.3333 14.2927,4.3029 21.2132,7.0711 4.8935,1.9574 9.4281,4.714 14.1421,7.071 11.7852,5.8926 23.1928,12.6099 35.3554,17.6777 6.88015,2.8668 14.20835,4.5239 21.21315,7.0711 15.4112,5.6041 30.1555,13.1615 45.9619,17.6776 4.6722,1.3349 9.47,2.2007 14.1422,3.5356 24.7487,7.071 -7.0711,0 31.8198,10.6066 5.7975,1.5811 11.9768,1.6352 17.6776,3.5355 12.3744,4.1248 22.981,13.5529 35.3554,17.6777 6.8007,2.2669 14.1602,2.2531 21.2132,3.5355 20.9294,3.8054 21.3047,5.3098 45.9619,7.0711 7.0531,0.5038 14.1422,0 21.2132,0 9.4281,0 18.8562,0 28.2843,0 21.2132,0 42.4264,0 63.6396,0 8.2496,0 16.6114,1.3562 24.7487,0 6.2602,-1.0434 11.5207,-5.5318 17.6777,-7.0711 3.43,-0.8575 7.1397,0.6934 10.6066,0 3.3013,-0.6603 12.4218,-7.1658 14.1421,-10.6066 0.5271,-1.0541 -0.527,-2.4814 0,-3.5355 0.7454,-1.4907 2.7902,-2.0449 3.5356,-3.5356 0.527,-1.0541 -0.5271,-2.4814 0,-3.5355 0.7453,-1.4907 2.7902,-2.0448 3.5355,-3.5355 1.0541,-2.1082 -2.357,-7.0711 0,-7.0711 1.1785,0 -1.1785,3.5355 0,3.5355 1.6667,0 2.0448,-2.7901 3.5355,-3.5355 1.0541,-0.527 2.3571,0 3.5356,0 2.357,0 4.835,0.7454 7.071,0 3.1623,-1.0541 4.2976,-5.2221 7.0711,-7.0711 2.1927,-1.4617 5.2077,-1.6721 7.0711,-3.5355 1.8634,-1.8634 2.0738,-4.8784 3.5355,-7.0711 3.4683,-5.2024 10.6739,-8.9397 14.1422,-14.1421 0.6537,-0.9806 -0.5271,-2.4814 0,-3.5355 0.9441,-1.8883 8.7452,-8.7453 10.6066,-10.6066 3.5355,-3.5356 7.071,-7.0711 10.6066,-10.6066 2.357,-2.3571 4.4044,-5.0711 7.071,-7.0711 2.1082,-1.5811 4.9629,-1.9544 7.0711,-3.5355 2.6667,-2 4.714,-4.7141 7.0711,-7.0711 3.5355,-3.5355 7.071,-7.0711 10.6066,-10.6066 2.357,-2.357 4.714,-4.7141 7.071,-7.0711 2.3571,-2.357 5.0711,-4.4044 7.0711,-7.071 1.5811,-2.1082 1.6721,-5.2077 3.5355,-7.0711 13.2636,-13.2636 6.5181,-2.2369 17.6777,-10.6066 2.6667,-2 4.2976,-5.2221 7.0711,-7.0711 4.3853,-2.9235 9.4281,-4.714 14.1421,-7.0711 4.7141,-2.357 9.2978,-4.9949 14.1421,-7.071 3.4255,-1.4681 7.2011,-2.022 10.6066,-3.5356 7.2244,-3.2108 14.2729,-6.8209 21.2132,-10.6066 12.0656,-6.5811 23.2899,-14.632 35.3554,-21.2132 13.8807,-7.5713 28.2843,-14.1421 42.4264,-21.2132 7.0711,-3.5355 13.9156,-7.5659 21.2132,-10.6066 6.8802,-2.8667 14.2565,-4.3954 21.2132,-7.071 19.7578,-7.5992 26.0682,-12.7043 45.9619,-17.6777 6.9546,-1.7386 14.1422,-2.357 21.2132,-3.5355 14.1422,-2.3571 28.2843,-4.7141 42.4265,-7.0711 7.071,-1.1785 14.2281,-1.9236 21.2132,-3.5355 8.3599,-1.9293 16.2443,-5.9372 24.7487,-7.0711 9.3454,-1.2461 18.8562,0 28.2843,0 20.0347,0 40.0693,0 60.104,0 8.2496,0 16.4992,0 24.7488,0 8.2496,0 16.8165,-2.2663 24.7487,0 9.1359,2.6102 16.2504,9.8929 24.7488,14.1421 12.7366,6.3684 26.1542,11.3094 38.8908,17.6777 10.8526,5.4263 20.8543,12.4835 31.8198,17.6777 11.4711,5.4336 23.8843,8.7084 35.3554,14.1421 10.9655,5.1942 20.8543,12.4835 31.8198,17.6777 41.1321,19.4836 26.3043,8.4145 63.6396,24.7487 9.6571,4.225 18.5373,10.1287 28.2843,14.1421 10.3382,4.257 21.6883,5.8786 31.8198,10.6066 7.701,3.5939 13.9259,9.7698 21.2132,14.1422 19.5739,11.7443 8.4417,1.9119 24.7487,14.1421 1.3333,1 2.7902,2.0448 3.5355,3.5356 0.5271,1.054 -1.0541,3.0084 0,3.5355 2.1082,1.0541 4.9629,-1.0541 7.0711,0 2.9814,1.4907 4.4044,5.0711 7.0711,7.0711 2.1082,1.5811 4.6243,2.5568 7.071,3.5355 3.4603,1.3841 7.6965,1.2074 10.6066,3.5355 3.3181,2.6545 4.0665,7.602 7.0711,10.6066 1.8634,1.8634 4.8784,2.0738 7.0711,3.5356 5.4626,3.6417 3.5355,8.1998 3.5355,14.1421"
       id="path3978"
       inkscape:connector-curvature="0"
       transform="matrix(0.91931551,0,0,0.98576385,72.002645,15.326244)" />
    <text
       xml:space="preserve"
       style="font-size:975.49780273px;font-style:normal;font-variant:normal;font-weight:bold;font-stretch:normal;text-align:start;line-height:125%;letter-spacing:0px;word-spacing:0px;writing-mode:lr-tb;text-anchor:start;fill:#0099f9;fill-opacity:1;stroke:#70d7ff;stroke-width:0.98550105;stroke-opacity:1;font-family:Gill Sans;-inkscape-font-specification:Gill Sans Bold"
       x="-0.93441975"
       y="-1816.976"
       id="text3980"
       sodipodi:linespacing="125%"
       transform="matrix(0,1.0485191,-0.9537261,0,0,0)"><tspan
         sodipodi:role="line"
         id="tspan3982"
         x="-0.93441975"
         y="-1816.976"
         style="stroke-width:0.98550105">Past</tspan></text>
    <text
       xml:space="preserve"
       style="font-size:866.22894287px;font-style:normal;font-variant:normal;font-weight:bold;font-stretch:normal;text-align:start;line-height:125%;letter-spacing:0px;word-spacing:0px;writing-mode:lr-tb;text-anchor:start;fill:#2596ff;fill-opacity:1;stroke:#70d7ff;stroke-width:0.98550111;stroke-linecap:butt;stroke-opacity:1;font-family:Gill Sans;-inkscape-font-specification:Gill Sans Bold"
       x="-30.211191"
       y="755.26593"
       id="text3984"
       sodipodi:linespacing="125%"
       transform="scale(0.89953506,1.1116854)"><tspan
         sodipodi:role="line"
         id="tspan3986"
         x="-30.211191"
         y="755.26593"
         style="stroke-width:0.98550111">Flow</tspan></text>
  </g>
</svg>
